<?xml version="1.0" encoding="utf-8"?>
<!-- Generator: Adobe Illustrator 23.0.3, SVG Export Plug-In . SVG Version: 6.00 Build 0)  -->
<svg version="1.1" id="Layer_1" xmlns="http://www.w3.org/2000/svg" xmlns:xlink="http://www.w3.org/1999/xlink" x="0px" y="0px"
	 viewBox="0 0 42.7 42.7" style="enable-background:new 0 0 42.7 42.7;" xml:space="preserve">
<style type="text/css">
	.st0{fill:none;stroke:#333333;stroke-width:0.6182;stroke-miterlimit:10;}
	.st1{fill:#C30204;}
</style>
<g>
	<path class="st0" d="M40.1,42.3H2.6c-1.2,0-2.2-1-2.2-2.2V2.6c0-1.2,1-2.2,2.2-2.2h37.5c1.2,0,2.2,1,2.2,2.2v37.5
		C42.3,41.3,41.3,42.3,40.1,42.3z"/>
	<g>
		<path class="st1" d="M21.3,5.7C15,5.7,9.9,10.8,9.9,17.2C9.9,23.5,21.3,37,21.3,37s11.4-13.5,11.4-19.8
			C32.8,10.8,27.7,5.7,21.3,5.7z M21.3,24.9c-4.5,0-8.2-3.7-8.2-8.2c0-4.5,3.7-8.2,8.2-8.2c4.5,0,8.2,3.7,8.2,8.2
			C29.5,21.2,25.9,24.9,21.3,24.9z"/>
		<circle class="st1" cx="21.3" cy="16.7" r="4.9"/>
	</g>
</g>
</svg>
