<?xml version="1.0" encoding="iso-8859-1"?>
<!-- Generator: Adobe Illustrator 19.0.0, SVG Export Plug-In . SVG Version: 6.00 Build 0)  -->
<svg version="1.1" id="Layer_1" xmlns="http://www.w3.org/2000/svg" xmlns:xlink="http://www.w3.org/1999/xlink" x="0px" y="0px"
	 viewBox="0 0 512 512" style="enable-background:new 0 0 512 512;" xml:space="preserve">
<polygon style="fill:#CEE8FA;" points="14.645,255.999 163.785,342.107 163.785,169.893 "/>
<g>
	<path style="fill:#2D527C;" d="M289.729,200.716H178.43v-30.824c0-5.233-2.791-10.067-7.322-12.682
		c-4.531-2.616-10.114-2.616-14.645,0L7.322,243.317C2.791,245.933,0,250.767,0,255.999s2.791,10.067,7.322,12.682l149.141,86.107
		c2.266,1.309,4.793,1.962,7.322,1.962c2.528,0,5.057-0.655,7.322-1.962c4.531-2.616,7.322-7.45,7.322-12.682v-30.824h111.299
		c8.087,0,14.645-6.556,14.645-14.645v-81.278C304.373,207.272,297.817,200.716,289.729,200.716z M149.141,316.742L43.934,255.999
		l105.207-60.743v20.104v81.278V316.742z M275.084,281.993H178.43v-51.988h96.654V281.993z"/>
	<path style="fill:#2D527C;" d="M497.355,494.995h-448.7c-8.088,0-14.645-6.556-14.645-14.645V378.352
		c0-8.088,6.556-14.645,14.645-14.645S63.3,370.264,63.3,378.352v87.354h419.411V46.294H63.3v87.354
		c0,8.088-6.556,14.645-14.645,14.645s-14.645-6.556-14.645-14.645V31.65c0-8.088,6.556-14.645,14.645-14.645h448.7
		c8.087,0,14.645,6.556,14.645,14.645v448.7C512,488.438,505.442,494.995,497.355,494.995z"/>
</g>
<rect x="341.834" y="128.096" style="fill:#CEE8FA;" width="85.915" height="255.797"/>
<path style="fill:#2D527C;" d="M427.748,398.541h-85.914c-8.087,0-14.645-6.556-14.645-14.645V128.104
	c0-8.088,6.558-14.645,14.645-14.645h85.914c8.087,0,14.645,6.556,14.645,14.645v255.793
	C442.393,391.985,435.836,398.541,427.748,398.541z M356.479,369.252h56.625V142.748h-56.625V369.252z"/>
<g>
</g>
<g>
</g>
<g>
</g>
<g>
</g>
<g>
</g>
<g>
</g>
<g>
</g>
<g>
</g>
<g>
</g>
<g>
</g>
<g>
</g>
<g>
</g>
<g>
</g>
<g>
</g>
<g>
</g>
</svg>
