<?xml version="1.0" encoding="UTF-8"?>
<svg width="20px" height="20px" viewBox="0 0 20 20" version="1.1" xmlns="http://www.w3.org/2000/svg" xmlns:xlink="http://www.w3.org/1999/xlink">
    <!-- Generator: Sketch 44.1 (41455) - http://www.bohemiancoding.com/sketch -->
    <title>Page 1</title>
    <desc>Created with Sketch.</desc>
    <defs>
        <polygon id="path-1" points="0 18.3556606 0 0.0666666667 18.4692539 0.0666666667 18.4692539 18.3556606"></polygon>
        <polygon id="path-3" points="2 19.9333333 21.8851923 19.9333333 21.8851923 0.19047619 2 0.19047619"></polygon>
    </defs>
    <g id="5-Account" stroke="none" stroke-width="1" fill="none" fill-rule="evenodd">
        <g id="5-2-Account-information" transform="translate(-201.000000, -565.000000)">
            <g id="Page-1" transform="translate(201.000000, 565.000000)">
                <g id="Group-3" transform="translate(0.000000, 0.123810)">
                    <mask id="mask-2" fill="white">
                        <use xlink:href="#path-1"></use>
                    </mask>
                    <g id="Clip-2"></g>
                    <path d="M2.04611538,0.066647619 L16.3865,0.066647619 C16.9845769,0.188552381 17.5922692,0.432361905 17.9615,0.940933333 C18.4307308,1.48950476 18.4711154,2.23998095 18.4691923,2.92569524 C18.4576538,5.04569524 18.4615,7.16379048 18.4615,9.28379048 C17.9441923,9.32569524 17.4307308,9.3923619 16.9191923,9.47617143 C16.9268846,7.35617143 16.9211154,5.23426667 16.9230385,3.11426667 L1.53842308,3.11426667 C1.53842308,7.30855238 1.54226923,11.5028381 1.53457692,15.6971238 C1.56342308,15.999981 1.51726923,16.3676 1.7615,16.599981 C2.05380769,16.8780762 2.49803846,16.8056952 2.86726923,16.8361714 C5.24419231,16.8228381 7.62111538,16.8304571 9.99996154,16.8285524 C9.85573077,17.3371238 9.7115,17.8437905 9.56726923,18.3523619 C7.14034615,18.3390286 4.7115,18.375219 2.28457692,18.3390286 C1.14803846,18.3561714 0.190346154,17.4514095 -3.84615385e-05,16.3676 L-3.84615385e-05,2.15617143 C0.113423077,1.0876 0.978807692,0.222838095 2.04611538,0.066647619" id="Fill-1" fill="#9B9B9B" mask="url(#mask-2)"></path>
                </g>
                <mask id="mask-4" fill="white">
                    <use xlink:href="#path-3"></use>
                </mask>
                <g id="Clip-5"></g>
                <polygon id="Fill-4" fill="#9B9B9B" mask="url(#mask-4)" points="3.84615385 7.80952381 5.38461538 7.80952381 5.38461538 6.28571429 3.84615385 6.28571429"></polygon>
                <polygon id="Fill-6" fill="#9B9B9B" mask="url(#mask-4)" points="6.92307692 7.80952381 14.6153846 7.80952381 14.6153846 6.28571429 6.92307692 6.28571429"></polygon>
                <polygon id="Fill-7" fill="#9B9B9B" mask="url(#mask-4)" points="3.84615385 10.8571429 5.38461538 10.8571429 5.38461538 9.33333333 3.84615385 9.33333333"></polygon>
                <polygon id="Fill-8" fill="#9B9B9B" mask="url(#mask-4)" points="6.92307692 10.8571429 14.6153846 10.8571429 14.6153846 9.33333333 6.92307692 9.33333333"></polygon>
                <polygon id="Fill-9" fill="#9B9B9B" mask="url(#mask-4)" points="3.84615385 13.9047619 5.38461538 13.9047619 5.38461538 12.3809524 3.84615385 12.3809524"></polygon>
                <path d="M6.92311538,12.3809333 C9.25388462,12.3809333 11.5846538,12.3790286 13.9154231,12.3828381 C13.4077308,12.8856952 12.8981154,13.3866476 12.3981154,13.8990286 C10.5731154,13.9123619 8.74811538,13.9009333 6.92311538,13.9047429 L6.92311538,12.3809333 Z" id="Fill-10" fill="#9B9B9B" mask="url(#mask-4)"></path>
                <path d="M12.0846154,18.9809143 C11.6961538,18.367581 12.1865385,17.6932952 12.3096154,17.0723429 C12.7019231,17.1485333 13.0923077,17.2323429 13.4865385,17.3085333 C13.5615385,17.7066286 13.6480769,18.102819 13.7269231,18.4990095 C13.1807692,18.6647238 12.6307692,18.8171048 12.0846154,18.9809143 M19.8288462,12.582819 C19.3826923,11.982819 18.85,11.4304381 18.2403846,10.9961524 C17.4919231,10.7254857 17.0301923,11.4913905 16.5486538,11.9599619 C16.5378846,11.9492952 16.5267308,11.939581 16.5159615,11.9289143 C15.3332692,13.090819 13.2403846,15.1637714 12.05,16.3199619 C11.8096154,16.542819 11.6365385,16.8247238 11.5576923,17.142819 C11.3211538,17.982819 11.0307692,18.8094857 10.8519231,19.662819 C10.9153846,19.7313905 11.0403846,19.8666286 11.1019231,19.9332952 C11.9692308,19.7371048 12.8134615,19.4609143 13.6673077,19.2190095 C14.0326923,19.1313905 14.3423077,18.9161524 14.5980769,18.6494857 C15.6409615,17.6043429 17.5328846,15.614819 18.7207692,14.4224381 L18.7269231,14.4285333 C18.7534615,14.3957714 18.7823077,14.3630095 18.8123077,14.3304381 C18.8838462,14.2590095 18.9532692,14.1898667 19.0188462,14.1252952 C19.4832692,13.6902476 20.0707692,13.2412952 19.8288462,12.582819" id="Fill-11" fill="#9B9B9B" mask="url(#mask-4)"></path>
            </g>
        </g>
    </g>
</svg>