<?xml version="1.0" encoding="utf-8"?>
<!-- Generator: Adobe Illustrator 23.0.3, SVG Export Plug-In . SVG Version: 6.00 Build 0)  -->
<svg version="1.1" id="Layer_1" xmlns="http://www.w3.org/2000/svg" xmlns:xlink="http://www.w3.org/1999/xlink" x="0px" y="0px"
	 viewBox="0 0 44.3 43.6" style="enable-background:new 0 0 44.3 43.6;" xml:space="preserve">
<style type="text/css">
	.st0{fill:#0098DA;}
	.st1{fill:#FFFFFF;}
</style>
<g>
	<path class="st0" d="M6.6,43.6c0-0.4,0-0.8,0-1.1c0.1-1.2,0.2-2.4,0.3-3.6C7,38.1,7,37.3,7.1,36.6c0-0.2-0.1-0.4-0.2-0.5
		c-0.8-0.8-1.5-1.5-2.2-2.3C2.4,31,1,27.8,0.3,24.3C0,22.8-0.1,21.4,0,19.9c0.4-5.7,2.7-10.5,7-14.2c3-2.6,6.3-4.3,10.2-5.2
		c1.1-0.2,2.2-0.3,3.3-0.4C21.2,0,21.9,0,22.6,0c2.6,0,5.1,0.5,7.6,1.4c2.5,0.9,4.7,2.2,6.7,3.9c1.7,1.4,3.2,3.2,4.4,5
		c1.3,2,2.1,4.3,2.7,6.6c0.4,1.8,0.4,3.7,0.4,5.5c-0.1,2.4-0.9,4.7-1.9,6.9c-1.5,3.4-3.9,6.1-6.9,8.2c-2.9,2.1-6.2,3.3-9.7,4
		c-1.8,0.3-3.5,0.3-5.3,0.2c-2.1-0.1-4.1-0.6-6.1-1.3c-0.6-0.2-1.1-0.2-1.7,0.1c-1.8,0.9-3.7,1.8-5.6,2.8C7,43.5,6.8,43.5,6.6,43.6z
		 M12.3,16.9c-0.2,0.3-0.2,0.4-0.4,0.6c-0.9,1.2-1.8,2.3-2.7,3.4c-0.9,1.2-1.8,2.3-2.7,3.5C6.2,25,6,25.6,6.3,26.3
		c0.2,0.5,0.8,0.7,1.3,0.8c0.5,0.1,1.1,0.1,1.6,0.1c1.9,0,3.8,0,5.7,0c0.2,0,0.5,0,0.7-0.1c0.5-0.1,0.8-0.3,1-0.8
		c0.2-0.9,0-1.8-1.2-1.9c-0.1,0-0.3,0-0.4,0c-1.2,0-2.5,0-3.7,0c-0.3,0-0.6,0-0.9-0.1c0.1-0.2,0.2-0.4,0.3-0.5c1.5-2,3.1-4,4.6-6
		c0.4-0.5,0.8-1.1,1-1.7c0.3-0.8,0-1.7-1.1-1.9c-0.3,0-0.6-0.1-0.8-0.1c-2.1,0-4.1,0-6.2,0c-0.2,0-0.5,0-0.7,0.1
		c-0.7,0.1-1.1,0.6-1.2,1.2c0,0.7,0.4,1.2,1.1,1.4c0.3,0,0.5,0.1,0.8,0.1c1.2,0,2.4,0,3.6,0C12,16.9,12.1,16.9,12.3,16.9z
		 M25.6,22.4C25.6,22.4,25.6,22.4,25.6,22.4c0-1,0-2,0-3c0-0.4-0.1-0.8-0.4-1c-0.6-0.6-1.5-0.6-2.1,0.1c-0.2,0.2-0.3,0.2-0.5,0.1
		c-0.5-0.4-1.1-0.6-1.8-0.7c-1.1-0.1-2.1,0.2-2.9,1c-2.1,2-2.1,5.5,0,7.5c1.2,1.1,3.4,1.3,4.7,0.3c0.2-0.2,0.3-0.1,0.5,0
		c0.4,0.4,0.9,0.7,1.5,0.5c0.6-0.2,1-0.8,1-1.5C25.6,24.4,25.6,23.4,25.6,22.4z M34.1,27.1c2.1,0.1,3.4-1.1,4.1-2.3
		c0.3-0.6,0.5-1.3,0.5-1.9c0.1-1.3-0.2-2.5-1-3.6c-1.4-1.7-4.3-2.1-6.1-0.8c-1.3,0.9-1.9,2.2-2,3.7c0,0.9,0.1,1.8,0.5,2.6
		C30.9,26.4,32.3,27.2,34.1,27.1z M26.1,20.6C26.1,20.6,26.1,20.6,26.1,20.6c0,1.7,0,3.4,0,5c0,0.3,0,0.6,0.2,0.8
		c0.2,0.5,1,0.7,1.5,0.6c0.7-0.1,1.1-0.5,1.1-1.2c0.1-0.8,0.1-1.5,0.1-2.3c0-2.7,0-5.4,0-8.1c0-0.2,0-0.5-0.1-0.7
		c-0.4-0.6-1.1-0.8-1.8-0.6c-0.5,0.2-0.9,0.6-0.9,1.4C26.2,17.2,26.1,18.9,26.1,20.6z"/>
	<path class="st1" d="M12.3,16.9c-0.2,0-0.3,0-0.4,0c-1.2,0-2.4,0-3.6,0c-0.3,0-0.5,0-0.8-0.1c-0.7-0.1-1.1-0.6-1.1-1.4
		c0-0.6,0.5-1.2,1.2-1.2c0.2,0,0.5-0.1,0.7-0.1c2.1,0,4.1,0,6.2,0c0.3,0,0.6,0,0.8,0.1c1.1,0.2,1.4,1,1.1,1.9
		c-0.2,0.6-0.6,1.2-1,1.7c-1.5,2-3.1,4-4.6,6c-0.1,0.1-0.2,0.3-0.3,0.5c0.4,0,0.6,0.1,0.9,0.1c1.2,0,2.5,0,3.7,0c0.1,0,0.3,0,0.4,0
		c1.2,0.2,1.4,1,1.2,1.9c-0.1,0.5-0.5,0.7-1,0.8c-0.2,0-0.5,0.1-0.7,0.1c-1.9,0-3.8,0-5.7,0c-0.5,0-1.1,0-1.6-0.1
		c-0.5-0.1-1.1-0.3-1.3-0.8C6,25.6,6.2,25,6.6,24.4c0.9-1.2,1.8-2.3,2.7-3.5c0.9-1.1,1.8-2.3,2.7-3.4C12.1,17.3,12.1,17.1,12.3,16.9
		z"/>
	<path class="st1" d="M25.6,22.4c0,1,0,2,0,3c0,0.8-0.3,1.3-1,1.5c-0.6,0.2-1.1-0.1-1.5-0.5c-0.2-0.2-0.3-0.2-0.5,0
		c-1.2,1.1-3.5,0.8-4.7-0.3c-2.1-1.9-2.1-5.5,0-7.5c0.8-0.8,1.8-1,2.9-1c0.7,0,1.3,0.2,1.8,0.7c0.2,0.2,0.3,0.1,0.5-0.1
		c0.6-0.6,1.5-0.6,2.1-0.1c0.3,0.3,0.4,0.6,0.4,1C25.6,20.4,25.6,21.4,25.6,22.4C25.6,22.4,25.6,22.4,25.6,22.4z M20.9,20.4
		c-0.6,0-1,0.2-1.3,0.7c-0.5,0.9-0.6,1.9-0.1,2.8c0.5,0.9,2.1,1,2.7,0.2c0.5-0.6,0.6-1.3,0.5-2.1C22.5,21,21.8,20.4,20.9,20.4z"/>
	<path class="st1" d="M34.1,27.1c-1.8,0.1-3.1-0.8-4-2.3c-0.5-0.8-0.6-1.7-0.5-2.6c0.1-1.5,0.7-2.8,2-3.7c1.8-1.3,4.7-0.9,6.1,0.8
		c0.8,1,1.1,2.2,1,3.6c-0.1,0.7-0.2,1.3-0.5,1.9C37.5,26.1,36.1,27.2,34.1,27.1z M35.8,22.5c0-0.3,0-0.5-0.1-0.7
		c-0.2-0.6-0.5-1.2-1.2-1.3c-0.6-0.1-1.2-0.1-1.6,0.4c-0.7,0.8-0.8,2.4,0,3.2c0.4,0.5,0.9,0.7,1.5,0.6c0.6-0.1,1.1-0.5,1.3-1.1
		C35.7,23.2,35.8,22.8,35.8,22.5z"/>
	<path class="st1" d="M26.1,20.6c0-1.7,0-3.3,0-5c0-0.8,0.4-1.3,0.9-1.4c0.7-0.2,1.4,0,1.8,0.6c0.1,0.2,0.1,0.4,0.1,0.7
		c0,2.7,0,5.4,0,8.1c0,0.8,0,1.5-0.1,2.3c-0.1,0.7-0.5,1-1.1,1.2c-0.5,0.1-1.2-0.2-1.5-0.6c-0.1-0.2-0.2-0.5-0.2-0.8
		C26.1,23.9,26.1,22.2,26.1,20.6C26.1,20.6,26.1,20.6,26.1,20.6z"/>
	<path class="st0" d="M20.9,20.4c0.8,0,1.5,0.6,1.7,1.5c0.2,0.8,0,1.5-0.5,2.1c-0.6,0.8-2.2,0.7-2.7-0.2c-0.5-0.9-0.5-1.9,0.1-2.8
		C19.9,20.6,20.4,20.4,20.9,20.4z"/>
	<path class="st0" d="M35.8,22.5c-0.1,0.3-0.1,0.7-0.2,1.1c-0.2,0.6-0.6,1-1.3,1.1c-0.6,0.1-1.1-0.1-1.5-0.6c-0.7-0.8-0.7-2.4,0-3.2
		c0.5-0.5,1-0.6,1.6-0.4c0.7,0.2,1,0.7,1.2,1.3C35.8,22,35.8,22.2,35.8,22.5z"/>
</g>
</svg>
